<?xml version="1.0" encoding="UTF-8" standalone="no"?>
<!DOCTYPE svg PUBLIC "-//W3C//DTD SVG 20010904//EN"
              "http://www.w3.org/TR/2001/REC-SVG-20010904/DTD/svg10.dtd">

<svg xmlns="http://www.w3.org/2000/svg"
     width="59.2593mm" height="59.2593mm"
     viewBox="0 0 168 168">
  <path id="Выделение"
        fill="true" stroke="black" stroke-width="1"
        d="M 38.04,12.74
           C 46.05,10.79 50.35,14.57 57.00,18.42
             57.00,18.42 88.00,36.58 88.00,36.58
             88.00,36.58 139.00,66.28 139.00,66.28
             143.83,69.04 156.32,75.18 158.26,80.04
             161.93,89.23 153.40,93.25 147.00,97.01
             147.00,97.01 135.00,104.01 135.00,104.01
             135.00,104.01 59.00,148.40 59.00,148.40
             52.80,152.07 36.98,162.60 33.14,149.98
             32.92,148.18 33.00,144.94 33.14,143.00
             33.14,143.00 33.14,46.00 33.14,46.00
             33.00,41.07 32.45,20.20 33.74,17.04
             34.79,14.45 35.81,14.04 38.04,12.74 Z" />
</svg>
