<?xml version="1.0" encoding="UTF-8" standalone="no"?>
<!DOCTYPE svg PUBLIC "-//W3C//DTD SVG 20010904//EN"
              "http://www.w3.org/TR/2001/REC-SVG-20010904/DTD/svg10.dtd">

<svg xmlns="http://www.w3.org/2000/svg"
     width="3in" height="3in"
     viewBox="0 0 216 216">
  <path id="Выделение"
        fill="true" stroke="black" stroke-width="1"
        d="M 18.00,32.00
           C 22.86,35.48 26.76,39.82 31.00,44.00
             32.63,45.60 35.58,48.95 38.00,48.96
             40.51,48.96 45.00,44.15 47.00,42.42
             54.61,35.86 61.04,30.64 70.00,25.89
             95.52,12.36 130.67,15.97 155.00,30.45
             163.93,35.77 171.95,42.96 178.54,51.00
             218.27,99.46 196.43,173.94 137.00,194.00
             129.64,196.48 113.58,199.24 106.00,198.68
             77.06,196.51 59.12,188.78 39.09,167.00
             35.22,162.79 27.35,151.59 26.43,146.00
             25.36,139.55 30.51,134.26 37.00,135.24
             42.53,136.08 44.55,140.78 47.23,145.00
             50.39,149.99 54.74,155.42 59.09,159.42
             76.40,175.34 90.10,179.26 113.00,179.00
             122.41,178.89 132.79,175.66 141.00,171.14
             162.06,159.53 178.88,136.66 179.00,112.00
             179.00,112.00 179.00,103.00 179.00,103.00
             178.60,68.77 144.92,37.05 111.00,37.00
             90.82,36.97 81.09,39.91 65.00,52.81
             62.32,54.95 54.04,61.58 54.04,65.00
             54.04,67.60 58.24,71.23 60.00,73.00
             65.20,78.22 71.80,84.13 76.00,90.00
             76.00,90.00 18.00,90.00 18.00,90.00
             18.00,90.00 18.00,32.00 18.00,32.00 Z" />
</svg>
