<?xml version="1.0" encoding="UTF-8" standalone="no"?>
<!DOCTYPE svg PUBLIC "-//W3C//DTD SVG 20010904//EN"
              "http://www.w3.org/TR/2001/REC-SVG-20010904/DTD/svg10.dtd">

<svg xmlns="http://www.w3.org/2000/svg"
     width="3in" height="3in"
     viewBox="0 0 216 216">
  <path id="Выделение"
        fill="true" stroke="black" stroke-width="1"
        d="M 26.00,17.71
           C 34.78,17.89 43.07,29.07 49.00,35.00
             49.00,35.00 90.00,76.00 90.00,76.00
             92.72,78.72 104.35,91.11 107.00,91.80
             109.49,92.46 111.33,90.49 113.00,88.96
             113.00,88.96 124.00,78.00 124.00,78.00
             124.00,78.00 170.00,32.00 170.00,32.00
             175.74,26.26 186.75,11.58 195.58,20.42
             204.42,29.25 189.74,40.26 184.00,46.00
             184.00,46.00 141.00,89.00 141.00,89.00
             141.00,89.00 129.00,101.00 129.00,101.00
             127.63,102.39 124.69,105.14 124.20,107.00
             123.54,109.49 125.51,111.33 127.04,113.00
             127.04,113.00 138.00,124.00 138.00,124.00
             138.00,124.00 184.00,170.00 184.00,170.00
             187.51,173.51 195.56,180.81 197.34,185.00
             199.67,190.51 197.08,196.77 191.00,198.03
             182.80,199.72 172.41,186.41 167.00,181.00
             167.00,181.00 126.00,140.00 126.00,140.00
             123.28,137.28 111.65,124.89 109.00,124.20
             106.19,123.45 103.81,126.27 102.00,128.01
             102.00,128.01 87.00,143.00 87.00,143.00
             87.00,143.00 51.00,179.00 51.00,179.00
             47.14,182.86 35.89,194.74 32.00,196.91
             23.64,201.56 15.54,193.71 18.18,186.00
             19.97,180.80 33.48,168.52 38.00,164.00
             38.00,164.00 58.00,144.00 58.00,144.00
             58.00,144.00 82.00,120.00 82.00,120.00
             84.07,117.93 91.18,111.38 91.80,109.00
             92.46,106.51 90.49,104.67 88.96,103.00
             88.96,103.00 78.00,92.00 78.00,92.00
             78.00,92.00 30.00,44.00 30.00,44.00
             24.44,38.44 11.11,27.71 21.22,19.70
             22.95,18.33 24.00,18.22 26.00,17.71 Z" />
</svg>
