<?xml version="1.0" encoding="UTF-8" standalone="no"?>
<!DOCTYPE svg PUBLIC "-//W3C//DTD SVG 20010904//EN"
              "http://www.w3.org/TR/2001/REC-SVG-20010904/DTD/svg10.dtd">

<svg xmlns="http://www.w3.org/2000/svg"
     width="3in" height="3in"
     viewBox="0 0 216 216">
  <path id="Выделение"
        fill="true" stroke="black" stroke-width="1"
        d="M 194.00,36.74
           C 206.70,33.71 209.34,44.40 205.26,51.00
             203.59,53.70 197.53,59.47 195.00,62.00
             195.00,62.00 175.00,82.00 175.00,82.00
             175.00,82.00 113.00,144.00 113.00,144.00
             113.00,144.00 90.00,167.00 90.00,167.00
             86.87,170.13 80.89,176.78 77.00,178.26
             68.75,181.40 63.14,174.13 58.00,169.00
             58.00,169.00 17.00,128.00 17.00,128.00
             12.08,123.01 4.30,113.97 12.15,107.51
             17.87,102.81 23.65,106.85 28.00,111.02
             28.00,111.02 60.00,143.00 60.00,143.00
             62.65,145.65 70.20,154.80 74.00,153.80
             76.31,153.19 82.06,146.94 84.00,145.00
             84.00,145.00 105.00,124.00 105.00,124.00
             105.00,124.00 164.00,65.00 164.00,65.00
             170.42,58.58 187.29,40.24 194.00,36.74 Z" />
</svg>
