<?xml version="1.0" encoding="UTF-8" standalone="no"?>
<!DOCTYPE svg PUBLIC "-//W3C//DTD SVG 20010904//EN"
              "http://www.w3.org/TR/2001/REC-SVG-20010904/DTD/svg10.dtd">

<svg xmlns="http://www.w3.org/2000/svg"
     width="1.83333in" height="2.05556in"
     viewBox="0 0 165 185">
  <path id="Выделение"
        fill="true" stroke="black" stroke-width="1"
        d="M 11.00,1.53
           C 20.51,0.05 28.15,5.10 36.00,9.80
             36.00,9.80 73.00,31.58 73.00,31.58
             73.00,31.58 137.00,68.72 137.00,68.72
             144.42,72.94 158.73,79.61 161.35,88.00
             165.02,99.76 153.27,105.62 145.00,110.42
             145.00,110.42 132.00,118.01 132.00,118.01
             132.00,118.01 35.00,174.86 35.00,174.86
             26.61,179.50 7.06,190.61 2.57,174.86
             1.91,172.73 2.00,169.40 2.00,167.00
             2.00,167.00 2.00,42.00 2.00,42.00
             2.00,42.00 2.00,17.00 2.00,17.00
             2.04,13.56 2.31,9.11 4.14,6.11
             5.93,3.15 7.93,2.53 11.00,1.53 Z" />
</svg>
